<svg width="19" height="18" viewBox="0 0 19 18" fill="none" xmlns="http://www.w3.org/2000/svg">
<path d="M16.1401 14.25H17.6401V15.75H1.14014V14.25H2.64014V3C2.64014 2.80109 2.71915 2.61032 2.85981 2.46967C3.00046 2.32902 3.19122 2.25 3.39014 2.25H10.8901C11.089 2.25 11.2798 2.32902 11.4205 2.46967C11.5611 2.61032 11.6401 2.80109 11.6401 3V14.25H14.6401V8.25H13.1401V6.75H15.3901C15.589 6.75 15.7798 6.82902 15.9205 6.96967C16.0611 7.11032 16.1401 7.30109 16.1401 7.5V14.25ZM4.14014 3.75V14.25H10.1401V3.75H4.14014ZM5.64014 8.25H8.64014V9.75H5.64014V8.25ZM5.64014 5.25H8.64014V6.75H5.64014V5.25Z" fill="#9CA3AF"/>
</svg>
