<svg width="13" height="13" viewBox="0 0 13 13" fill="none" xmlns="http://www.w3.org/2000/svg">
<path d="M5.89014 3.5V4.5H3.39014V10H8.89014V7.5H9.89014V10.5C9.89014 10.6326 9.83746 10.7598 9.74369 10.8536C9.64992 10.9473 9.52275 11 9.39014 11H2.89014C2.75753 11 2.63035 10.9473 2.53658 10.8536C2.44282 10.7598 2.39014 10.6326 2.39014 10.5V4C2.39014 3.86739 2.44282 3.74021 2.53658 3.64645C2.63035 3.55268 2.75753 3.5 2.89014 3.5H5.89014ZM11.3901 2V6H10.3901V3.7065L6.49364 7.6035L5.78664 6.8965L9.68264 3H7.39014V2H11.3901Z" fill="#6B7280"/>
</svg>
