<svg width="19" height="19" viewBox="0 0 19 19" fill="none" xmlns="http://www.w3.org/2000/svg">
<path d="M2.42773 10.25H6.53548C6.66382 12.6251 7.4209 14.9235 8.72923 16.91C7.09043 16.6526 5.58313 15.8594 4.443 14.6544C3.30286 13.4494 2.59417 11.9005 2.42773 10.25ZM2.42773 8.75C2.59417 7.09948 3.30286 5.55063 4.443 4.34563C5.58313 3.14064 7.09043 2.34742 8.72923 2.09C7.4209 4.07646 6.66382 6.37486 6.53548 8.75H2.42773ZM17.3527 8.75H13.245C13.1166 6.37486 12.3596 4.07646 11.0512 2.09C12.69 2.34742 14.1973 3.14064 15.3375 4.34563C16.4776 5.55063 17.1863 7.09948 17.3527 8.75ZM17.3527 10.25C17.1863 11.9005 16.4776 13.4494 15.3375 14.6544C14.1973 15.8594 12.69 16.6526 11.0512 16.91C12.3596 14.9235 13.1166 12.6251 13.245 10.25H17.3535H17.3527ZM8.03773 10.25H11.7427C11.6193 12.2746 10.9817 14.2343 9.89023 15.944C8.79876 14.2343 8.16118 12.2746 8.03773 10.25ZM8.03773 8.75C8.16118 6.72539 8.79876 4.76567 9.89023 3.056C10.9817 4.76567 11.6193 6.72539 11.7427 8.75H8.03773Z" fill="#9CA3AF"/>
</svg>
