<svg width="21" height="21" viewBox="0 0 21 21" fill="none" xmlns="http://www.w3.org/2000/svg">
<path fill-rule="evenodd" clip-rule="evenodd" d="M7.74175 5.69822C6.41218 5.69822 5.33434 6.77605 5.33434 8.10563C5.33434 9.4352 6.41219 10.513 7.74177 10.513C9.07134 10.513 10.1492 9.43521 10.1492 8.10563C10.1492 6.77605 9.07132 5.69822 7.74175 5.69822ZM10.4446 11.1541C11.2858 10.4077 11.8158 9.31859 11.8158 8.10563C11.8158 5.85558 9.9918 4.03156 7.74175 4.03156C5.4917 4.03156 3.66768 5.85558 3.66768 8.10563C3.66768 9.31859 4.19776 10.4077 5.03891 11.1541C4.46993 11.44 3.94477 11.8171 3.48603 12.2758C3.28259 12.4793 3.09519 12.6958 2.92466 12.9235C2.54247 13.4337 2.3625 14.0024 2.39419 14.5763C2.42539 15.1414 2.65783 15.6473 2.99013 16.0558C3.64404 16.8595 4.74047 17.3649 5.88992 17.3649L9.59362 17.3649C10.7431 17.3649 11.8395 16.8595 12.4934 16.0558C12.8257 15.6473 13.0581 15.1414 13.0893 14.5763C13.121 14.0024 12.9411 13.4337 12.5589 12.9235C12.3883 12.6958 12.2009 12.4793 11.9975 12.2758C11.5388 11.8171 11.0136 11.44 10.4446 11.1541ZM7.74177 12.1797C6.58758 12.1797 5.48067 12.6382 4.66454 13.4543C4.51739 13.6015 4.38189 13.7581 4.25861 13.9226C4.08897 14.1491 4.0502 14.3373 4.05832 14.4844C4.06693 14.6403 4.13286 14.8194 4.28297 15.0039C4.59388 15.3861 5.19841 15.6982 5.88992 15.6982L9.59362 15.6982C10.2851 15.6982 10.8897 15.3861 11.2006 15.0039C11.3507 14.8194 11.4166 14.6403 11.4252 14.4844C11.4333 14.3373 11.3946 14.1491 11.2249 13.9226C11.1017 13.7581 10.9661 13.6015 10.819 13.4543C10.0029 12.6382 8.89595 12.1797 7.74177 12.1797ZM16.3066 7.36489C16.7668 7.36489 17.1399 7.73798 17.1399 8.19822V9.44822H18.3899C18.8502 9.44822 19.2232 9.82132 19.2232 10.2816C19.2232 10.7418 18.8502 11.1149 18.3899 11.1149H17.1399V12.3649C17.1399 12.8251 16.7668 13.1982 16.3066 13.1982C15.8463 13.1982 15.4732 12.8251 15.4732 12.3649V11.1149H14.2232C13.763 11.1149 13.3899 10.7418 13.3899 10.2816C13.3899 9.82132 13.763 9.44822 14.2232 9.44822H15.4732V8.19822C15.4732 7.73798 15.8463 7.36489 16.3066 7.36489Z" fill="white"/>
</svg>
