<svg width="19" height="19" viewBox="0 0 19 19" fill="none" xmlns="http://www.w3.org/2000/svg">
<path d="M3.14014 2.75H16.6401C16.839 2.75 17.0298 2.82902 17.1705 2.96967C17.3111 3.11032 17.3901 3.30109 17.3901 3.5V15.5C17.3901 15.6989 17.3111 15.8897 17.1705 16.0303C17.0298 16.171 16.839 16.25 16.6401 16.25H3.14014C2.94122 16.25 2.75046 16.171 2.60981 16.0303C2.46915 15.8897 2.39014 15.6989 2.39014 15.5V3.5C2.39014 3.30109 2.46915 3.11032 2.60981 2.96967C2.75046 2.82902 2.94122 2.75 3.14014 2.75ZM9.93514 9.26225L5.12614 5.1785L4.15489 6.3215L9.94489 11.2378L15.6306 6.31775L14.6496 5.183L9.93589 9.26225H9.93514Z" fill="#9CA3AF"/>
</svg>
