<svg width="19" height="18" viewBox="0 0 19 18" fill="none" xmlns="http://www.w3.org/2000/svg">
<path d="M4.89014 6H7.14014M4.89014 9H7.14014M4.89014 12H7.14014M4.29014 15H14.4901C15.3302 15 15.7503 15 16.0711 14.8365C16.3534 14.6927 16.5828 14.4632 16.7266 14.181C16.8901 13.8601 16.8901 13.4401 16.8901 12.6V5.4C16.8901 4.55992 16.8901 4.13988 16.7266 3.81901C16.5828 3.53677 16.3534 3.3073 16.0711 3.16349C15.7503 3 15.3302 3 14.4901 3H4.29014C3.45006 3 3.03002 3 2.70915 3.16349C2.42691 3.3073 2.19744 3.53677 2.05363 3.81901C1.89014 4.13988 1.89014 4.55992 1.89014 5.4V12.6C1.89014 13.4401 1.89014 13.8601 2.05363 14.181C2.19744 14.4632 2.42691 14.6927 2.70915 14.8365C3.03002 15 3.45006 15 4.29014 15ZM10.7401 9.75H13.2901C13.5002 9.75 13.6052 9.75 13.6854 9.70913C13.7559 9.67317 13.8133 9.61581 13.8493 9.54525C13.8901 9.46503 13.8901 9.36002 13.8901 9.15V6.6C13.8901 6.38998 13.8901 6.28497 13.8493 6.20475C13.8133 6.13419 13.7559 6.07683 13.6854 6.04087C13.6052 6 13.5002 6 13.2901 6H10.7401C10.5301 6 10.4251 6 10.3449 6.04087C10.2743 6.07683 10.217 6.13419 10.181 6.20475C10.1401 6.28497 10.1401 6.38998 10.1401 6.6V9.15C10.1401 9.36002 10.1401 9.46503 10.181 9.54525C10.217 9.61581 10.2743 9.67317 10.3449 9.70913C10.4251 9.75 10.5301 9.75 10.7401 9.75Z" stroke="#9CA3AF" stroke-width="1.6" stroke-linecap="round"/>
</svg>
