<svg width="19" height="18" viewBox="0 0 19 18" fill="none" xmlns="http://www.w3.org/2000/svg">
<path d="M11.5844 15.75C11.1876 15.7484 10.792 15.7037 10.4049 15.6165C8.59021 15.1048 6.95704 14.0913 5.69337 12.6928C4.29347 11.43 3.27905 9.79756 2.76697 7.9837C2.56329 7.07852 2.60553 6.13538 2.88932 5.25201C3.17311 4.36863 3.68812 3.57717 4.38099 2.95964C4.59248 2.72778 4.85166 2.5444 5.14076 2.42209C5.42985 2.29977 5.742 2.24141 6.05579 2.25102C6.62363 2.29219 7.15526 2.54512 7.54525 2.95964L8.59575 4.00944C9.0146 4.42917 9.24981 4.99775 9.24981 5.59052C9.24981 6.18329 9.0146 6.75187 8.59575 7.1716L8.0705 7.6965C7.93262 7.8348 7.85521 8.02206 7.85521 8.21728C7.85521 8.4125 7.93262 8.59976 8.0705 8.73806L9.64625 10.3128C9.78486 10.4504 9.97234 10.5277 10.1677 10.5277C10.3632 10.5277 10.5506 10.4504 10.6892 10.3128L11.2145 9.78786C11.6345 9.36906 12.2037 9.13386 12.797 9.13386C13.3903 9.13386 13.9595 9.36906 14.3795 9.78786L15.43 10.8377C15.8448 11.2271 16.0979 11.7581 16.1391 12.3254C16.1488 12.6391 16.0905 12.9512 15.9681 13.2402C15.8457 13.5293 15.6621 13.7884 15.43 13.9998C14.9411 14.5367 14.3481 14.9687 13.6871 15.2696C13.026 15.5704 12.3106 15.7339 11.5844 15.75ZM5.95674 3.75224C5.75526 3.7708 5.56935 3.86841 5.43975 4.02369C4.92932 4.46524 4.54785 5.03649 4.33572 5.67697C4.12358 6.31744 4.08867 7.00332 4.23467 7.66201C4.68886 9.19548 5.56227 10.5719 6.75662 11.6363C7.82171 12.8299 9.19901 13.7027 10.7335 14.1565C11.3932 14.3018 12.0799 14.2664 12.7211 14.054C13.3623 13.8417 13.9342 13.4602 14.3765 12.95C14.4566 12.8842 14.522 12.8023 14.5687 12.7097C14.6153 12.6172 14.6421 12.5159 14.6474 12.4124C14.6206 12.2173 14.5244 12.0385 14.3765 11.9085L13.326 10.8587C13.1874 10.721 12.9999 10.6438 12.8045 10.6438C12.6091 10.6438 12.4216 10.721 12.283 10.8587L11.7578 11.3836C11.3375 11.802 10.7685 12.0369 10.1753 12.0369C9.58203 12.0369 9.01298 11.802 8.59275 11.3836L7.017 9.80886C6.59829 9.3889 6.36318 8.82024 6.36318 8.2274C6.36318 7.63457 6.59829 7.0659 7.017 6.64595L7.54225 6.12105C7.68008 5.98288 7.75747 5.79574 7.75747 5.60064C7.75747 5.40555 7.68008 5.21841 7.54225 5.08024L6.49175 4.03044C6.36147 3.88271 6.18262 3.78643 5.98751 3.75899L5.95674 3.75224Z" fill="#9CA3AF"/>
</svg>
