<svg width="19" height="19" viewBox="0 0 19 19" fill="none" xmlns="http://www.w3.org/2000/svg">
<path d="M9.5878 11.5835C9.9016 11.8963 10.3266 12.0719 10.7697 12.0719C11.2128 12.0719 11.6378 11.8963 11.9516 11.5835L12.5426 10.9926C12.8564 10.6799 13.2814 10.5042 13.7245 10.5042C14.1675 10.5042 14.5926 10.6799 14.9064 10.9926L16.0883 12.1744C16.2611 12.319 16.4 12.4998 16.4954 12.704C16.5907 12.9082 16.6401 13.1308 16.6401 13.3561C16.6401 13.5814 16.5907 13.804 16.4954 14.0082C16.4 14.2124 16.2611 14.3932 16.0883 14.5378C12.9934 17.6331 9.43077 16.1627 6.32659 13.059C3.2224 9.95526 1.75937 6.39659 4.85512 3.30131C4.99989 3.12868 5.18073 2.98986 5.38492 2.89461C5.58911 2.79936 5.8117 2.75 6.03702 2.75C6.26234 2.75 6.48493 2.79936 6.68912 2.89461C6.89331 2.98986 7.07415 3.12868 7.21892 3.30131L8.40083 4.48304C8.71386 4.79668 8.88966 5.22167 8.88966 5.66476C8.88966 6.10785 8.71386 6.53284 8.40083 6.84649L7.80988 7.43735C7.49685 7.75099 7.32105 8.17598 7.32105 8.61907C7.32105 9.06216 7.49685 9.48715 7.80988 9.80079L9.5878 11.5835Z" fill="#9CA3AF"/>
</svg>
