<svg width="19" height="18" viewBox="0 0 19 18" fill="none" xmlns="http://www.w3.org/2000/svg">
<path fill-rule="evenodd" clip-rule="evenodd" d="M9.39014 3C7.31907 3 5.64014 4.67893 5.64014 6.75C5.64014 8.89566 6.66786 10.9938 7.76077 12.6046C8.30073 13.4005 8.84166 14.0555 9.24715 14.5109C9.297 14.5669 9.34475 14.6198 9.39014 14.6695C9.43552 14.6198 9.48327 14.5669 9.53312 14.5109C9.93861 14.0555 10.4795 13.4005 11.0195 12.6046C12.1124 10.9938 13.1401 8.89566 13.1401 6.75C13.1401 4.67893 11.4612 3 9.39014 3ZM9.39014 15.75C8.87423 16.2944 8.87406 16.2942 8.87388 16.294L8.87222 16.2925L8.86859 16.289L8.85651 16.2774C8.84637 16.2676 8.83207 16.2537 8.81389 16.2359C8.77755 16.2001 8.72567 16.1485 8.66048 16.0818C8.53016 15.9485 8.34635 15.7549 8.12687 15.5084C7.68861 15.0162 7.10454 14.3091 6.51951 13.4468C5.36242 11.7414 4.14014 9.33962 4.14014 6.75C4.14014 3.85051 6.49064 1.5 9.39014 1.5C12.2896 1.5 14.6401 3.85051 14.6401 6.75C14.6401 9.33962 13.4179 11.7414 12.2608 13.4468C11.6757 14.3091 11.0917 15.0162 10.6534 15.5084C10.4339 15.7549 10.2501 15.9485 10.1198 16.0818C10.0546 16.1485 10.0027 16.2001 9.96638 16.2359C9.94821 16.2537 9.93391 16.2676 9.92376 16.2774L9.91169 16.289L9.90805 16.2925L9.90684 16.2936C9.90666 16.2938 9.90604 16.2944 9.39014 15.75ZM9.39014 15.75L9.90604 16.2944C9.61675 16.5685 9.16318 16.5682 8.87388 16.294L9.39014 15.75ZM9.39014 6C8.97592 6 8.64014 6.33579 8.64014 6.75C8.64014 7.16421 8.97592 7.5 9.39014 7.5C9.80435 7.5 10.1401 7.16421 10.1401 6.75C10.1401 6.33579 9.80435 6 9.39014 6ZM7.14014 6.75C7.14014 5.50736 8.1475 4.5 9.39014 4.5C10.6328 4.5 11.6401 5.50736 11.6401 6.75C11.6401 7.99264 10.6328 9 9.39014 9C8.1475 9 7.14014 7.99264 7.14014 6.75Z" fill="#9CA3AF"/>
</svg>
