<svg width="243" height="300" viewBox="0 0 243 300" fill="none" xmlns="http://www.w3.org/2000/svg">
<path d="M227.222 4.89712H15.1387V218.644H227.222V4.89712Z" fill="white"/>
<g clip-path="url(#clip0_188_1736)">
<path d="M207.198 284.353L207.198 32.139C207.198 24.2213 200.78 17.8027 192.862 17.8027L50.0863 17.8027C42.1685 17.8026 35.7499 24.2213 35.7499 32.139L35.7499 284.353C35.7499 292.27 42.1685 298.689 50.0862 298.689L192.862 298.689C200.78 298.689 207.198 292.27 207.198 284.353Z" fill="#9298FF"/>
<path opacity="0.1" d="M207.198 284.353L207.198 32.139C207.198 24.2213 200.78 17.8027 192.862 17.8027L50.0863 17.8027C42.1685 17.8026 35.7499 24.2213 35.7499 32.139L35.7499 284.353C35.7499 292.27 42.1685 298.689 50.0862 298.689L192.862 298.689C200.78 298.689 207.198 292.27 207.198 284.353Z" fill="black"/>
<path opacity="0.2" d="M150.718 90.9965L150.718 41.6126C150.718 37.8048 147.631 34.718 143.823 34.718L119.049 34.718C115.241 34.718 112.155 37.8048 112.155 41.6126L112.155 90.9965C112.155 94.8043 115.241 97.8911 119.049 97.8911L143.823 97.8911C147.631 97.8911 150.718 94.8043 150.718 90.9965Z" fill="white"/>
<path opacity="0.4" d="M85.4292 85.6888L85.4292 37.3035C85.4292 35.8756 84.2716 34.718 82.8437 34.718L74.1024 34.718C72.6744 34.718 71.5169 35.8756 71.5169 37.3035L71.5169 85.6888C71.5169 87.1167 72.6744 88.2743 74.1024 88.2743L82.8437 88.2743C84.2716 88.2743 85.4292 87.1167 85.4292 85.6888Z" fill="white"/>
<path opacity="0.4" d="M85.4292 150.188L85.4292 101.803C85.4292 100.375 84.2716 99.2176 82.8437 99.2176L74.1024 99.2176C72.6744 99.2176 71.5169 100.375 71.5169 101.803L71.5169 150.188C71.5169 151.616 72.6744 152.774 74.1024 152.774L82.8437 152.774C84.2716 152.774 85.4292 151.616 85.4292 150.188Z" fill="white"/>
<path opacity="0.4" d="M85.4292 214.688L85.4292 166.303C85.4292 164.875 84.2716 163.718 82.8437 163.718L74.1024 163.718C72.6744 163.718 71.5169 164.875 71.5169 166.303L71.5169 214.688C71.5169 216.116 72.6744 217.274 74.1024 217.274L82.8437 217.274C84.2716 217.274 85.4292 216.116 85.4292 214.688Z" fill="white"/>
<path opacity="0.4" d="M85.4292 279.188L85.4292 230.803C85.4292 229.375 84.2716 228.218 82.8437 228.218L74.1024 228.218C72.6744 228.218 71.5169 229.375 71.5169 230.803L71.5169 279.188C71.5169 280.616 72.6744 281.774 74.1024 281.774L82.8437 281.774C84.2716 281.774 85.4292 280.616 85.4292 279.188Z" fill="white"/>
</g>
<path d="M227.461 113.019H15.1089V299.585H227.461V113.019Z" fill="url(#paint0_linear_188_1736)"/>
<path d="M204.195 4.41473H227.073V27.4721" stroke="#06EA8C" stroke-width="7.35722" stroke-linecap="round" stroke-linejoin="round"/>
<path d="M38.1962 4.41457H15.3184V27.4719" stroke="#06EA8C" stroke-width="7.35722" stroke-linecap="round" stroke-linejoin="round"/>
<path d="M38.1962 216.898H15.3184V193.841" stroke="#06EA8C" stroke-width="7.35722" stroke-linecap="round" stroke-linejoin="round"/>
<path d="M204.195 216.898H227.073V193.841" stroke="#06EA8C" stroke-width="7.35722" stroke-linecap="round" stroke-linejoin="round"/>
<path d="M239.408 116.149H2.95338C1.40032 116.149 0.175781 114.975 0.175781 113.5C0.175781 112.056 1.43018 110.851 2.95338 110.851H239.438C240.991 110.851 242.215 112.025 242.215 113.5C242.215 114.945 240.961 116.149 239.438 116.149H239.408Z" fill="#06EA8C"/>
<defs>
<linearGradient id="paint0_linear_188_1736" x1="121.285" y1="296.726" x2="121.285" y2="110.16" gradientUnits="userSpaceOnUse">
<stop stop-color="white"/>
<stop offset="0.09" stop-color="#F6FEFA" stop-opacity="0.98"/>
<stop offset="0.23" stop-color="#DDFCEF" stop-opacity="0.93"/>
<stop offset="0.4" stop-color="#B6F8DD" stop-opacity="0.85"/>
<stop offset="0.61" stop-color="#7FF4C3" stop-opacity="0.74"/>
<stop offset="0.84" stop-color="#39EEA3" stop-opacity="0.6"/>
<stop offset="1" stop-color="#06EA8C" stop-opacity="0.5"/>
</linearGradient>
<clipPath id="clip0_188_1736">
<rect width="283.171" height="173.733" fill="white" transform="translate(208.062 16.4146) rotate(90)"/>
</clipPath>
</defs>
</svg>
