<svg width="19" height="18" viewBox="0 0 19 18" fill="none" xmlns="http://www.w3.org/2000/svg">
<path d="M16.9839 4.53693H1.79639V16.6869H16.9839V4.53693Z" stroke="#9CA3AF" stroke-width="1.5" stroke-miterlimit="10" stroke-linejoin="round"/>
<path d="M16.9839 4.53693H1.79639V7.57443C1.79639 8.69273 2.70308 9.59943 3.82139 9.59943H14.9589C16.0772 9.59943 16.9839 8.69273 16.9839 7.57443V4.53693Z" stroke="#9CA3AF" stroke-width="1.5" stroke-miterlimit="10" stroke-linejoin="round"/>
<path d="M5.34033 4.53692V2.51192C5.34033 1.95251 5.79343 1.49942 6.35283 1.49942H12.4278C12.9872 1.49942 13.4403 1.95251 13.4403 2.51192V4.53692" stroke="#9CA3AF" stroke-width="1.5" stroke-miterlimit="10" stroke-linejoin="round"/>
<path d="M9.38994 11.6244C8.83054 11.6244 8.37744 11.1713 8.37744 10.6119V8.58692C8.37744 8.02751 8.83054 7.57442 9.38994 7.57442C9.94935 7.57442 10.4024 8.02751 10.4024 8.58692V10.6119C10.4024 11.1713 9.94935 11.6244 9.38994 11.6244Z" stroke="#9CA3AF" stroke-width="1.2" stroke-miterlimit="10" stroke-linejoin="round"/>
</svg>
