<svg width="34" height="35" viewBox="0 0 34 35" fill="none" xmlns="http://www.w3.org/2000/svg">
<path d="M16.9999 20.8333C18.3185 20.8333 19.6074 20.4423 20.7037 19.7098C21.8 18.9773 22.6545 17.9361 23.1591 16.7179C23.6637 15.4997 23.7957 14.1593 23.5385 12.8661C23.2812 11.5729 22.6463 10.385 21.714 9.45262C20.7816 8.52027 19.5937 7.88533 18.3005 7.6281C17.0073 7.37086 15.6669 7.50289 14.4487 8.00747C13.2305 8.51205 12.1893 9.36654 11.4568 10.4629C10.7242 11.5592 10.3332 12.8481 10.3332 14.1667C10.3332 15.9348 11.0356 17.6305 12.2859 18.8807C13.5361 20.131 15.2318 20.8333 16.9999 20.8333ZM16.9999 10.8333C17.6592 10.8333 18.3037 11.0288 18.8518 11.3951C19.4 11.7614 19.8272 12.282 20.0795 12.8911C20.3318 13.5001 20.3978 14.1704 20.2692 14.817C20.1406 15.4636 19.8231 16.0575 19.3569 16.5237C18.8908 16.9899 18.2968 17.3073 17.6502 17.436C17.0036 17.5646 16.3334 17.4986 15.7243 17.2463C15.1152 16.994 14.5946 16.5667 14.2283 16.0186C13.8621 15.4704 13.6666 14.8259 13.6666 14.1667C13.6666 13.2826 14.0178 12.4348 14.6429 11.8096C15.268 11.1845 16.1159 10.8333 16.9999 10.8333Z" fill="#1F2A37"/>
<path d="M33.6666 17.5C33.6689 14.6172 32.9235 11.7831 31.503 9.27447C30.0826 6.76588 28.0358 4.66861 25.5625 3.18755C23.0893 1.70648 20.2741 0.89226 17.3921 0.824425C14.5101 0.75659 11.6598 1.43746 9.11954 2.80052C6.57932 4.16358 4.4361 6.16222 2.89922 8.60121C1.36235 11.0402 0.484377 13.8361 0.351081 16.7158C0.217785 19.5956 0.833719 22.4606 2.13872 25.0312C3.44371 27.6017 5.39315 29.7898 7.79658 31.3817C7.80992 31.3917 7.81825 31.4033 7.83158 31.4133C7.89492 31.455 7.96492 31.4833 8.02992 31.525C8.56747 31.8677 9.12391 32.1799 9.69658 32.46C9.84825 32.5333 9.99825 32.61 10.1532 32.6783C10.8021 32.9777 11.4703 33.2332 12.1532 33.4433C12.2349 33.47 12.3199 33.485 12.4049 33.5083C13.0191 33.6829 13.6429 33.8215 14.2732 33.9233C14.4566 33.955 14.6382 33.985 14.8216 34.0083C15.5435 34.1086 16.2711 34.1615 16.9999 34.1667C17.7248 34.161 18.4486 34.1081 19.1666 34.0083C19.3499 33.985 19.5316 33.955 19.7149 33.9233C20.3452 33.8215 20.9691 33.6829 21.5832 33.5083C21.6666 33.485 21.7499 33.47 21.8349 33.4433C22.5179 33.2332 23.1861 32.9777 23.8349 32.6783C23.9899 32.61 24.1399 32.5333 24.2916 32.46C24.8643 32.1799 25.4207 31.8677 25.9582 31.525C26.0232 31.4833 26.0932 31.455 26.1566 31.4133C26.1699 31.4033 26.1782 31.3917 26.1916 31.3817C28.4864 29.8645 30.37 27.8028 31.6743 25.3806C32.9786 22.9584 33.6631 20.251 33.6666 17.5ZM3.66658 17.5C3.66227 15.2877 4.20851 13.1091 5.25606 11.1605C6.30362 9.21194 7.81957 7.55465 9.6673 6.338C11.515 5.12136 13.6364 4.38359 15.8404 4.1912C18.0443 3.99881 20.2615 4.35783 22.292 5.23592C24.3226 6.11401 26.1028 7.48357 27.4721 9.22116C28.8415 10.9587 29.7569 13.0098 30.136 15.1893C30.5151 17.3689 30.3459 19.6086 29.6436 21.7065C28.9414 23.8044 27.7281 25.6945 26.1132 27.2067C25.4394 25.8019 24.3835 24.6153 23.0665 23.7828C21.7495 22.9504 20.2246 22.5058 18.6666 22.5H15.3332C13.7752 22.5058 12.2503 22.9504 10.9333 23.7828C9.61629 24.6153 8.56039 25.8019 7.88658 27.2067C6.55579 25.9641 5.49451 24.4613 4.76859 22.7916C4.04266 21.1218 3.66757 19.3207 3.66658 17.5ZM21.7416 29.9467C18.6826 31.0833 15.3172 31.0833 12.2582 29.9467C12.1999 29.9233 12.1382 29.905 12.0799 29.8817C11.5851 29.6891 11.1026 29.4665 10.6349 29.215C10.968 28.232 11.5999 27.3777 12.4423 26.7714C13.2846 26.1651 14.2954 25.8371 15.3332 25.8333H18.6666C19.704 25.8369 20.7145 26.1644 21.5568 26.77C22.3991 27.3757 23.0313 28.2293 23.3649 29.2117C22.8973 29.4631 22.4147 29.6858 21.9199 29.8783C21.8616 29.905 21.7999 29.9233 21.7416 29.9467Z" fill="#1F2A37"/>
</svg>
