<svg width="41" height="51" viewBox="0 0 41 51" fill="none" xmlns="http://www.w3.org/2000/svg">
<path d="M4.5 50.25C3.2625 50.25 2.20312 49.8094 1.32188 48.9281C0.440625 48.0469 0 46.9875 0 45.75V5.25C0 4.0125 0.440625 2.95312 1.32188 2.07188C2.20312 1.19063 3.2625 0.75 4.5 0.75H27C28.2375 0.75 29.2969 1.19063 30.1781 2.07188C31.0594 2.95312 31.5 4.0125 31.5 5.25V14.25H27V12H4.5V39H27V36.75H31.5V45.75C31.5 46.9875 31.0594 48.0469 30.1781 48.9281C29.2969 49.8094 28.2375 50.25 27 50.25H4.5ZM4.5 43.5V45.75H27V43.5H4.5ZM24.6375 34.5L15.075 24.9375L18.225 21.7875L24.6375 28.2L37.35 15.4875L40.5 18.6375L24.6375 34.5ZM4.5 7.5H27V5.25H4.5V7.5Z" fill="#1D1B20"/>
</svg>
