<svg width="24" height="25" viewBox="0 0 24 25" fill="none" xmlns="http://www.w3.org/2000/svg">
<g clip-path="url(#clip0_80_2147)">
<path d="M23.155 12.4997C23.5257 12.0681 23.7854 11.5525 23.9117 10.9978C24.038 10.4431 24.0271 9.8659 23.8798 9.31636C23.7325 8.76682 23.4534 8.26151 23.0666 7.84427C22.6799 7.42702 22.1972 7.11044 21.6604 6.92199C21.7655 6.36285 21.7327 5.78648 21.5647 5.2429C21.3967 4.69932 21.0986 4.20495 20.6962 3.80266C20.2939 3.40038 19.7995 3.10234 19.2559 2.9344C18.7123 2.76646 18.1359 2.7337 17.5768 2.83895C17.3885 2.30202 17.072 1.81916 16.6547 1.43231C16.2375 1.04545 15.7321 0.766291 15.1825 0.61906C14.6329 0.471829 14.0556 0.46098 13.5009 0.587453C12.9461 0.713927 12.4306 0.973902 11.9991 1.3448C11.5675 0.974157 11.0519 0.714417 10.4972 0.588117C9.94246 0.461818 9.36529 0.472775 8.81575 0.620036C8.26621 0.767297 7.7609 1.04642 7.34365 1.43318C6.92641 1.81994 6.60983 2.30266 6.42138 2.83947C5.86228 2.73439 5.28597 2.7673 4.74246 2.93535C4.19895 3.1034 3.70465 3.40152 3.30243 3.80384C2.90022 4.20616 2.60223 4.70054 2.43431 5.24409C2.2664 5.78764 2.23364 6.36395 2.33886 6.92303C1.80205 7.11148 1.31933 7.42806 0.932566 7.84531C0.545804 8.26255 0.266684 8.76786 0.119423 9.3174C-0.0278377 9.86694 -0.0387957 10.4441 0.0875033 10.9988C0.213802 11.5536 0.473547 12.0691 0.844195 12.5007C0.473434 12.9323 0.21361 13.4479 0.0872748 14.0027C-0.0390602 14.5575 -0.0280926 15.1347 0.119233 15.6843C0.266558 16.2339 0.545786 16.7392 0.93268 17.1565C1.31957 17.5737 1.80245 17.8902 2.33939 18.0784C2.23407 18.6375 2.26679 19.2139 2.43473 19.7575C2.60266 20.3011 2.90072 20.7954 3.30304 21.1977C3.70536 21.6 4.19978 21.898 4.74338 22.0658C5.28698 22.2337 5.86334 22.2663 6.42242 22.161C6.61087 22.6978 6.92745 23.1805 7.3447 23.5673C7.76194 23.954 8.26725 24.2331 8.81679 24.3804C9.36633 24.5277 9.9435 24.5386 10.4982 24.4123C11.053 24.286 11.5685 24.0263 12.0001 23.6556C12.4317 24.0264 12.9473 24.2862 13.5021 24.4125C14.0569 24.5389 14.6341 24.5279 15.1837 24.3806C15.7333 24.2333 16.2386 23.954 16.6559 23.5671C17.0731 23.1802 17.3895 22.6974 17.5778 22.1604C18.137 22.2657 18.7133 22.233 19.2569 22.065C19.8005 21.8971 20.2949 21.5991 20.6972 21.1968C21.0995 20.7945 21.3975 20.3001 21.5655 19.7565C21.7334 19.2129 21.7662 18.6365 21.6609 18.0774C22.1977 17.889 22.6805 17.5724 23.0673 17.1552C23.4541 16.7379 23.7332 16.2326 23.8804 15.683C24.0276 15.1334 24.0385 14.5562 23.9121 14.0015C23.7857 13.4467 23.5258 12.9312 23.155 12.4997Z" fill="#039443"/>
<path d="M9.84554 17.0807L6.51087 13.7481C6.38432 13.6214 6.31323 13.4496 6.31323 13.2705C6.31323 13.0913 6.38432 12.9195 6.51087 12.7928L6.91601 12.3871C7.04277 12.2606 7.21456 12.1895 7.39368 12.1895C7.5728 12.1895 7.74461 12.2606 7.87137 12.3871L10.2954 14.8096L16.0042 8.74302C16.127 8.61268 16.2965 8.53641 16.4756 8.53095C16.6546 8.52549 16.8284 8.59129 16.959 8.7139L17.3751 9.10655C17.5055 9.22941 17.5819 9.39905 17.5874 9.5782C17.5928 9.75735 17.5269 9.93133 17.4042 10.0619L10.817 17.0656C10.755 17.1317 10.6803 17.1847 10.5974 17.2214C10.5145 17.258 10.4251 17.2776 10.3345 17.279C10.2438 17.2804 10.1539 17.2636 10.0699 17.2295C9.98586 17.1955 9.90958 17.1449 9.84554 17.0807Z" fill="white"/>
</g>
<defs>
<clipPath id="clip0_80_2147">
<rect width="24" height="24" fill="white" transform="translate(0 0.5)"/>
</clipPath>
</defs>
</svg>
