<svg width="27" height="27" viewBox="0 0 27 27" fill="none" xmlns="http://www.w3.org/2000/svg">
<g clip-path="url(#clip0_625_1016)">
<path fill-rule="evenodd" clip-rule="evenodd" d="M26.5453 7.04497H0.519531V5.82501C0.519531 4.70265 1.24825 3.79175 2.14614 3.79175H24.9187C25.8166 3.79175 26.5453 4.70265 26.5453 5.82501V7.04497ZM26.5453 11.1115V21.6845C26.5453 22.1159 26.3739 22.5296 26.0689 22.8346C25.7638 23.1397 25.3501 23.3111 24.9187 23.3111H2.14614C1.71474 23.3111 1.301 23.1397 0.995954 22.8346C0.690906 22.5296 0.519531 22.1159 0.519531 21.6845V11.1115H26.5453ZM7.02597 16.8046C6.59457 16.8046 6.18083 16.976 5.87578 17.281C5.57073 17.5861 5.39936 17.9998 5.39936 18.4312C5.39936 18.8626 5.57073 19.2764 5.87578 19.5814C6.18083 19.8865 6.59457 20.0578 7.02597 20.0578H8.65258C9.08398 20.0578 9.49772 19.8865 9.80276 19.5814C10.1078 19.2764 10.2792 18.8626 10.2792 18.4312C10.2792 17.9998 10.1078 17.5861 9.80276 17.281C9.49772 16.976 9.08398 16.8046 8.65258 16.8046H7.02597Z" fill="#605BFF"/>
</g>
<defs>
<clipPath id="clip0_625_1016">
<rect width="26.0258" height="26.0258" fill="white" transform="translate(0.519531 0.538574)"/>
</clipPath>
</defs>
</svg>
