<svg width="177" height="27" viewBox="0 0 177 27" fill="none" xmlns="http://www.w3.org/2000/svg">
<g clip-path="url(#clip0_625_438)">
<path d="M36.186 0.981934H4.46709C2.67038 0.981934 1.21387 2.43845 1.21387 4.23515V22.9412C1.21387 24.7379 2.67038 26.1944 4.46709 26.1944H36.186C37.9827 26.1944 39.4392 24.7379 39.4392 22.9412V4.23515C39.4392 2.43845 37.9827 0.981934 36.186 0.981934Z" fill="white" stroke="black" stroke-opacity="0.2" stroke-width="0.813305"/>
<path d="M5.34202 10.1957C4.49108 9.72896 3.51991 9.35359 2.43408 9.0931L2.47963 8.89024H6.93162C7.53507 8.91139 8.02472 9.09295 8.18406 9.73417L9.1516 14.347L9.448 15.7364L12.1579 8.89024H15.0839L10.7345 18.9193H7.80834L5.34202 10.1957ZM17.2362 18.93H14.4691L16.1998 8.89024H18.9668L17.2362 18.93ZM27.2672 9.13568L26.8909 11.3036L26.6406 11.197C26.1399 10.994 25.4789 10.7912 24.5794 10.8126C23.4869 10.8126 22.9969 11.2503 22.9856 11.6776C22.9856 12.1476 23.5783 12.4573 24.5461 12.9167C26.1403 13.6323 26.8798 14.508 26.8688 15.6509C26.8464 17.7337 24.9561 19.0796 22.0527 19.0796C20.8113 19.0688 19.6156 18.8227 18.9666 18.5453L19.3538 16.2916L19.7182 16.452C20.6178 16.8262 21.2097 16.986 22.3145 16.986C23.1112 16.986 23.9653 16.676 23.9762 16.0034C23.9762 15.5655 23.6123 15.2448 22.5418 14.7535C21.4943 14.2727 20.0939 13.4718 20.1166 12.0298C20.1284 10.0753 22.0527 8.70825 24.7853 8.70825C25.8557 8.70825 26.7214 8.93254 27.2672 9.13568ZM30.9449 15.3733H33.2449C33.1311 14.8713 32.6071 12.4681 32.6071 12.4681L32.4137 11.603C32.2771 11.9768 32.0381 12.5857 32.0496 12.5642C32.0496 12.5642 31.1728 14.7965 30.9449 15.3733ZM34.3605 8.89024L36.5929 18.9298H34.0308C34.0308 18.9298 33.7801 17.7763 33.7006 17.4238H30.1479C30.0452 17.6907 29.5672 18.9298 29.5672 18.9298H26.6637L30.7739 9.72324C31.0587 9.07166 31.5601 8.89024 32.2202 8.89024H34.3605Z" fill="#171E6C"/>
</g>
<g clip-path="url(#clip1_625_438)">
<path d="M82.1379 0.575195H49.6058C47.8091 0.575195 46.3525 2.03171 46.3525 3.82841V23.3477C46.3525 25.1444 47.8091 26.6009 49.6058 26.6009H82.1379C83.9347 26.6009 85.3912 25.1444 85.3912 23.3477V3.82841C85.3912 2.03171 83.9347 0.575195 82.1379 0.575195Z" fill="#252525"/>
<path d="M60.9919 21.7212C65.4837 21.7212 69.125 18.0799 69.125 13.5881C69.125 9.09637 65.4837 5.45508 60.9919 5.45508C56.5002 5.45508 52.8589 9.09637 52.8589 13.5881C52.8589 18.0799 56.5002 21.7212 60.9919 21.7212Z" fill="#EB001B"/>
<path d="M70.7517 21.7212C75.2435 21.7212 78.8847 18.0799 78.8847 13.5881C78.8847 9.09637 75.2435 5.45508 70.7517 5.45508C66.2599 5.45508 62.6187 9.09637 62.6187 13.5881C62.6187 18.0799 66.2599 21.7212 70.7517 21.7212Z" fill="#F79E1B"/>
<path fill-rule="evenodd" clip-rule="evenodd" d="M65.8719 7.08081C67.8473 8.56461 69.1251 10.927 69.1251 13.5878C69.1251 16.2487 67.8473 18.6111 65.8719 20.0949C63.8964 18.6111 62.6187 16.2487 62.6187 13.5878C62.6187 10.927 63.8964 8.56461 65.8719 7.08081V7.08081Z" fill="#FF5F00"/>
</g>
<g clip-path="url(#clip2_625_438)">
<path d="M127.683 0.575195H95.1507C93.354 0.575195 91.8975 2.03171 91.8975 3.82841V23.3477C91.8975 25.1444 93.354 26.6009 95.1507 26.6009H127.683C129.48 26.6009 130.936 25.1444 130.936 23.3477V3.82841C130.936 2.03171 129.48 0.575195 127.683 0.575195Z" fill="#016FD0"/>
<path fill-rule="evenodd" clip-rule="evenodd" d="M114.286 22.3616V13.0876L130.792 13.1025V15.6642L128.884 17.703L130.792 19.7604V22.3765H127.746L126.127 20.5903L124.52 22.3833L114.286 22.3616Z" fill="#FFFFFE"/>
<path fill-rule="evenodd" clip-rule="evenodd" d="M115.389 21.345V14.1084H121.525V15.7755H117.375V16.9071H121.426V18.5464H117.375V19.6579H121.525V21.345H115.389Z" fill="#016FD0"/>
<path fill-rule="evenodd" clip-rule="evenodd" d="M121.494 21.3451L124.89 17.7226L121.494 14.1086H124.122L126.197 16.4022L128.278 14.1086H130.793V14.1656L127.47 17.7226L130.793 21.2424V21.3451H128.252L126.141 19.0285L124.051 21.3451H121.494Z" fill="#016FD0"/>
<path fill-rule="evenodd" clip-rule="evenodd" d="M115.056 4.8562H119.035L120.432 8.02947V4.8562H125.345L126.192 7.2336L127.042 4.8562H130.792V14.1301H110.97L115.056 4.8562Z" fill="#FFFFFE"/>
<path fill-rule="evenodd" clip-rule="evenodd" d="M115.81 5.86401L112.599 13.0946H114.801L115.407 11.6466H118.689L119.294 13.0946H121.551L118.354 5.86401H115.81ZM116.086 10.024L117.048 7.72219L118.011 10.024H116.086Z" fill="#016FD0"/>
<path fill-rule="evenodd" clip-rule="evenodd" d="M121.521 13.0932V5.86279L124.617 5.87343L126.21 10.3185L127.813 5.86279H130.792V13.0932L128.875 13.1102V8.14357L127.065 13.0932H125.315L123.468 8.1266V13.0932H121.521Z" fill="#016FD0"/>
</g>
<g clip-path="url(#clip3_625_438)">
<path d="M173.223 26.1943L173.227 26.1943C174.78 26.2076 176.055 24.9374 176.074 23.3546L176.074 3.83875C176.068 3.07325 175.764 2.34206 175.228 1.8063C174.694 1.27191 173.974 0.975669 173.223 0.982049L140.697 0.982034C139.949 0.975669 139.229 1.27191 138.695 1.8063C138.16 2.34206 137.855 3.07325 137.849 3.83544L137.849 23.3376C137.855 24.1031 138.16 24.8343 138.695 25.37C139.229 25.9044 139.949 26.2006 140.7 26.1943H173.223ZM173.222 27.0076C173.221 27.0076 173.221 27.0076 173.22 27.0076L173.223 27.0076H173.222Z" fill="white" stroke="black" stroke-opacity="0.2" stroke-width="0.813305"/>
<path d="M157.958 26.6007H173.223C174.08 26.6079 174.905 26.2744 175.516 25.6735C176.127 25.0727 176.474 24.2537 176.481 23.3969V19.5603C170.717 22.8693 164.465 25.2455 157.958 26.6007Z" fill="#F27712"/>
<path d="M175.135 15.6968H173.748L172.187 13.6372H172.039V15.6968H170.908V10.5814H172.577C173.883 10.5814 174.637 11.1199 174.637 12.0891C174.637 12.8833 174.166 13.3949 173.318 13.5564L175.135 15.6968ZM173.466 12.1295C173.466 11.6314 173.089 11.3756 172.389 11.3756H172.039V12.9237H172.362C173.089 12.9237 173.466 12.6545 173.466 12.1295ZM166.95 10.5814H170.154V11.4429H168.081V12.5872H170.073V13.4622H168.081V14.8487H170.154V15.7103H166.95V10.5814ZM163.316 15.8314L160.866 10.5679H162.104L163.652 14.0141L165.214 10.5679H166.425L163.948 15.8314H163.343H163.316ZM153.071 15.818C151.348 15.818 150.002 14.6468 150.002 13.1256C150.002 11.6449 151.375 10.4468 153.098 10.4468C153.583 10.4468 153.987 10.541 154.485 10.7564V11.941C154.108 11.5704 153.6 11.3626 153.071 11.3622C151.994 11.3622 151.173 12.1429 151.173 13.1256C151.173 14.1622 151.981 14.9026 153.125 14.9026C153.637 14.9026 154.027 14.741 154.485 14.3372V15.5218C153.973 15.7372 153.542 15.818 153.071 15.818ZM149.652 14.1353C149.652 15.1314 148.831 15.818 147.646 15.818C146.785 15.818 146.166 15.5218 145.641 14.8487L146.381 14.216C146.637 14.6737 147.067 14.9026 147.606 14.9026C148.117 14.9026 148.481 14.5929 148.481 14.1891C148.481 13.9603 148.373 13.7853 148.144 13.6506C147.893 13.5289 147.632 13.4298 147.364 13.3545C146.3 13.0179 145.937 12.6545 145.937 11.941C145.937 11.1064 146.717 10.4737 147.741 10.4737C148.387 10.4737 148.966 10.6756 149.45 11.0525L148.858 11.7256C148.623 11.4683 148.291 11.3217 147.942 11.3218C147.458 11.3218 147.108 11.5641 147.108 11.8872C147.108 12.1564 147.31 12.3045 147.983 12.5333C149.275 12.9372 149.652 13.3141 149.652 14.1487V14.1353ZM144.092 10.5814H145.223V15.7103H144.092V10.5814ZM140.458 15.7103H138.789V10.5814H140.458C142.289 10.5814 143.554 11.6314 143.554 13.1391C143.554 13.9064 143.177 14.6333 142.517 15.118C141.952 15.5218 141.319 15.7103 140.444 15.7103H140.458ZM141.777 11.8602C141.4 11.5641 140.969 11.4564 140.229 11.4564H139.919V14.8487H140.229C140.956 14.8487 141.414 14.7141 141.777 14.4449C142.167 14.1218 142.396 13.6372 142.396 13.1391C142.396 12.641 142.167 12.1699 141.777 11.8602Z" fill="black"/>
<path d="M157.635 10.4468C156.154 10.4468 154.943 11.6314 154.943 13.0987C154.943 14.6603 156.101 15.8314 157.635 15.8314C159.143 15.8314 160.328 14.6468 160.328 13.1391C160.328 11.6314 159.156 10.4468 157.635 10.4468Z" fill="#F27712"/>
</g>
<defs>
<clipPath id="clip0_625_438">
<rect width="39.0386" height="26.0258" fill="white" transform="translate(0.807129 0.575195)"/>
</clipPath>
<clipPath id="clip1_625_438">
<rect width="39.0386" height="26.0258" fill="white" transform="translate(46.3525 0.575195)"/>
</clipPath>
<clipPath id="clip2_625_438">
<rect width="39.0386" height="26.0258" fill="white" transform="translate(91.8975 0.575195)"/>
</clipPath>
<clipPath id="clip3_625_438">
<rect width="39.0386" height="26.0258" fill="white" transform="translate(137.442 0.575195)"/>
</clipPath>
</defs>
</svg>
