<svg width="20" height="18" viewBox="0 0 20 18" fill="none" xmlns="http://www.w3.org/2000/svg">
<path d="M17.0007 9.99976C16.4487 9.99976 16.0007 10.4478 16.0007 10.9998V12.9998H3.4147L4.7077 11.7068C5.0987 11.3158 5.0987 10.6838 4.7077 10.2928C4.3167 9.90176 3.6847 9.90176 3.2937 10.2928L0.293703 13.2928C0.201703 13.3848 0.128703 13.4958 0.0777031 13.6178C-0.0232969 13.8628 -0.0232969 14.1378 0.0777031 14.3818C0.128703 14.5038 0.201703 14.6148 0.293703 14.7068L3.2937 17.7068C3.4887 17.9018 3.7447 17.9998 4.0007 17.9998C4.2567 17.9998 4.5127 17.9018 4.7077 17.7068C5.0987 17.3158 5.0987 16.6838 4.7077 16.2928L3.4147 14.9998H17.0007C17.5527 14.9998 18.0007 14.5518 18.0007 13.9998V10.9998C18.0007 10.4478 17.5527 9.99976 17.0007 9.99976Z" fill="#1F2A37"/>
<path d="M19.9237 3.61776C19.8727 3.49576 19.7997 3.38476 19.7077 3.29276L16.7077 0.292762C16.3167 -0.0982383 15.6847 -0.0982383 15.2937 0.292762C14.9027 0.683762 14.9027 1.31576 15.2937 1.70676L16.5867 2.99976H3.0007C2.4487 2.99976 2.0007 3.44776 2.0007 3.99976V6.99976C2.0007 7.55176 2.4487 7.99976 3.0007 7.99976C3.5527 7.99976 4.0007 7.55176 4.0007 6.99976V4.99976H16.5867L15.2937 6.29276C14.9027 6.68376 14.9027 7.31576 15.2937 7.70676C15.4887 7.90176 15.7447 7.99976 16.0007 7.99976C16.2567 7.99976 16.5127 7.90176 16.7077 7.70676L19.7077 4.70676C19.7997 4.61476 19.8727 4.50376 19.9237 4.38176C20.0247 4.13776 20.0247 3.86176 19.9237 3.61776Z" fill="#1F2A37"/>
</svg>
