<svg width="101" height="100" viewBox="0 0 101 100" fill="none" xmlns="http://www.w3.org/2000/svg">
<g clip-path="url(#clip0_170_7502)">
<path d="M96.9793 49.9978C98.5236 48.1993 99.6059 46.0513 100.132 43.7399C100.658 41.4285 100.613 39.0236 99.9991 36.7339C99.3856 34.4441 98.2225 32.3387 96.611 30.6001C94.9995 28.8616 92.9882 27.5425 90.7515 26.7573C91.1898 24.4276 91.0529 22.026 90.3529 19.7611C89.6529 17.4962 88.4108 15.4363 86.7344 13.7601C85.058 12.0839 82.9979 10.8421 80.7329 10.1424C78.4679 9.44263 76.0664 9.30611 73.7367 9.74466C72.9521 7.50744 71.6332 5.49554 69.8947 3.88364C68.1561 2.27174 66.0504 1.10857 63.7603 0.495106C61.4703 -0.118356 59.0651 -0.163562 56.7535 0.363412C54.442 0.890386 52.2941 1.97361 50.4962 3.51904C48.6978 1.97468 46.5497 0.892426 44.2383 0.36618C41.9269 -0.160066 39.522 -0.114414 37.2323 0.499173C34.9425 1.11276 32.8371 2.27575 31.0986 3.88726C29.36 5.49877 28.041 7.51012 27.2558 9.74683C24.9261 9.30898 22.5249 9.44611 20.2603 10.1463C17.9956 10.8465 15.9361 12.0887 14.2601 13.765C12.5842 15.4414 11.3426 17.5013 10.643 19.7661C9.94334 22.0309 9.80683 24.4322 10.2453 26.7617C8.00856 27.5469 5.9972 28.8659 4.38569 30.6045C2.77418 32.343 1.61119 34.4485 0.997598 36.7382C0.38401 39.0279 0.338351 41.4328 0.864597 43.7442C1.39084 46.0556 2.47311 48.2037 4.01748 50.0021C2.47264 51.8005 1.39004 53.9487 0.863645 56.2603C0.337249 58.572 0.382947 60.9771 0.996804 63.2671C1.61066 65.557 2.77411 67.6626 4.38617 69.4009C5.99823 71.1393 8.01021 72.458 10.2474 73.2425C9.80862 75.5721 9.94497 77.9736 10.6447 80.2385C11.3444 82.5034 12.5864 84.5633 14.2627 86.2394C15.939 87.9156 17.9991 89.1572 20.2641 89.8566C22.5291 90.5561 24.9306 90.6921 27.2601 90.253C28.0453 92.4897 29.3644 94.5011 31.1029 96.1126C32.8414 97.7241 34.9469 98.8871 37.2366 99.5007C39.5264 100.114 41.9312 100.16 44.2426 99.6337C46.554 99.1074 48.7021 98.0252 50.5005 96.4808C52.2989 98.0257 54.4472 99.1083 56.7588 99.6347C59.0704 100.161 61.4756 100.115 63.7655 99.5015C66.0555 98.8876 68.161 97.7242 69.8994 96.1121C71.6378 94.5001 72.9565 92.4881 73.741 90.2509C76.0706 90.6895 78.4721 90.5531 80.7371 89.8534C83.002 89.1536 85.062 87.9118 86.7383 86.2355C88.4145 84.5593 89.6564 82.4993 90.3562 80.2343C91.0559 77.9694 91.1923 75.5679 90.7536 73.2382C92.9905 72.4532 95.0021 71.1341 96.6136 69.3956C98.2252 67.657 99.3882 65.5514 100.002 63.2615C100.615 60.9716 100.66 58.5666 100.134 56.2552C99.607 53.9438 98.5242 51.7959 96.9793 49.9978Z" fill="#605BFF"/>
<path d="M41.5226 69.0843L27.6282 55.1986C27.1009 54.6704 26.8047 53.9546 26.8047 53.2082C26.8047 52.4619 27.1009 51.746 27.6282 51.2179L29.3162 49.5277C29.8444 49.0004 30.5602 48.7042 31.3066 48.7042C32.0529 48.7042 32.7688 49.0004 33.2969 49.5277L43.397 59.6213L67.1836 34.3439C67.6954 33.8008 68.4018 33.483 69.1477 33.4603C69.8936 33.4375 70.6181 33.7117 71.1621 34.2226L72.8956 35.8586C73.4393 36.3705 73.7575 37.0774 73.7803 37.8238C73.803 38.5703 73.5285 39.2952 73.0169 39.8393L45.5705 69.0215C45.3121 69.2969 45.0009 69.5175 44.6555 69.6703C44.3101 69.823 43.9375 69.9048 43.5599 69.9106C43.1822 69.9165 42.8073 69.8464 42.4573 69.7044C42.1073 69.5625 41.7895 69.3516 41.5226 69.0843Z" fill="white"/>
</g>
<defs>
<clipPath id="clip0_170_7502">
<rect width="100" height="100" fill="white" transform="translate(0.5)"/>
</clipPath>
</defs>
</svg>
